<?xml version="1.0" standalone="no"?>
<!DOCTYPE svg PUBLIC "-//W3C//DTD SVG 20010904//EN"
 "http://www.w3.org/TR/2001/REC-SVG-20010904/DTD/svg10.dtd">
<svg version="1.0" xmlns="http://www.w3.org/2000/svg"
 width="212.000000pt" height="238.000000pt" viewBox="0 0 212.000000 238.000000"
 preserveAspectRatio="xMidYMid meet">

<g transform="translate(0.000000,238.000000) scale(0.100000,-0.100000)"
fill="#000000" stroke="none">
<path d="M1875 1658 c-246 -142 -434 -250 -827 -476 -159 -91 -288 -169 -288
-174 0 -21 98 -110 149 -135 49 -25 68 -28 151 -28 84 0 102 3 152 28 34 17
77 50 108 84 l51 55 147 -85 c81 -46 147 -90 147 -96 0 -23 -93 -137 -150
-183 -69 -56 -195 -122 -275 -143 -94 -26 -215 -30 -310 -11 -156 31 -327 132
-413 243 -23 30 -49 64 -58 76 -16 20 -19 19 -223 -98 -113 -66 -206 -122
-206 -125 0 -23 120 -98 515 -326 l450 -259 65 0 65 0 450 259 c282 162 464
272 487 296 20 21 41 55 47 76 16 56 15 1053 -1 1105 -6 22 -14 39 -17 39 -4
0 -101 -55 -216 -122z m-185 -388 l0 -40 40 0 40 0 0 -40 0 -40 -40 0 -40 0 0
-40 0 -40 -40 0 -40 0 0 40 0 40 -40 0 -40 0 0 40 0 40 40 0 40 0 0 40 0 40
40 0 40 0 0 -40z m295 -3 c0 -36 1 -37 38 -37 37 0 37 0 37 -40 0 -39 -1 -40
-35 -40 -34 0 -35 -1 -35 -40 l0 -40 -45 0 -45 0 0 40 0 40 -40 0 -40 0 0 40
0 40 40 0 40 0 0 41 0 40 43 -3 c41 -3 42 -4 42 -41z"/>
</g>
</svg>
